<svg width="400" height="600" xmlns="http://www.w3.org/2000/svg">
  <!-- Fondo -->
  <rect width="400" height="600" fill="#FFE6F0"/>
  
  <!-- Header -->
  <rect width="400" height="80" fill="#F4A6D7"/>
  <text x="200" y="35" font-family="Arial" font-size="18" fill="white" text-anchor="middle" font-weight="bold">Calculadora Profesional</text>
  <text x="350" y="60" font-family="Arial" font-size="14" fill="white" text-anchor="middle">Modo Básico</text>
  
  <!-- Botones superiores -->
  <rect x="15" y="90" width="180" height="40" rx="10" fill="#D4A5D4"/>
  <text x="105" y="115" font-family="Arial" font-size="16" fill="white" text-anchor="middle" font-weight="bold">Modo Científico</text>
  
  <rect x="205" y="90" width="180" height="40" rx="10" fill="#F4A6D7"/>
  <text x="295" y="115" font-family="Arial" font-size="16" fill="white" text-anchor="middle" font-weight="bold">Juego de Divisiones</text>
  
  <!-- Display -->
  <rect x="15" y="150" width="370" height="80" rx="10" fill="white"/>
  <text x="370" y="210" font-family="Arial" font-size="48" fill="#7B4B94" text-anchor="end" font-weight="bold">0</text>
  
  <!-- Botones -->
  <!-- Fila 1 -->
  <rect x="15" y="250" width="85" height="70" rx="10" fill="#E6D0E6"/>
  <text x="57.5" y="295" font-family="Arial" font-size="24" fill="white" text-anchor="middle" font-weight="bold">A.C</text>
  
  <rect x="110" y="250" width="85" height="70" rx="10" fill="#E6D0E6"/>
  <text x="152.5" y="295" font-family="Arial" font-size="24" fill="white" text-anchor="middle" font-weight="bold">C</text>
  
  <rect x="205" y="250" width="85" height="70" rx="10" fill="#E6D0E6"/>
  <text x="247.5" y="295" font-family="Arial" font-size="24" fill="white" text-anchor="middle" font-weight="bold">%</text>
  
  <rect x="300" y="250" width="85" height="70" rx="10" fill="#F4A6D7"/>
  <text x="342.5" y="295" font-family="Arial" font-size="24" fill="white" text-anchor="middle" font-weight="bold">/</text>
  
  <!-- Fila 2 -->
  <rect x="15" y="330" width="85" height="70" rx="10" fill="#E6D0E6"/>
  <text x="57.5" y="375" font-family="Arial" font-size="24" fill="white" text-anchor="middle" font-weight="bold">7</text>
  
  <rect x="110" y="330" width="85" height="70" rx="10" fill="#E6D0E6"/>
  <text x="152.5" y="375" font-family="Arial" font-size="24" fill="white" text-anchor="middle" font-weight="bold">8</text>
  
  <rect x="205" y="330" width="85" height="70" rx="10" fill="#E6D0E6"/>
  <text x="247.5" y="375" font-family="Arial" font-size="24" fill="white" text-anchor="middle" font-weight="bold">9</text>
  
  <rect x="300" y="330" width="85" height="70" rx="10" fill="#F4A6D7"/>
  <text x="342.5" y="375" font-family="Arial" font-size="24" fill="white" text-anchor="middle" font-weight="bold">×</text>
  
  <!-- Fila 3 -->
  <rect x="15" y="410" width="85" height="70" rx="10" fill="#E6D0E6"/>
  <text x="57.5" y="455" font-family="Arial" font-size="24" fill="white" text-anchor="middle" font-weight="bold">4</text>
  
  <rect x="110" y="410" width="85" height="70" rx="10" fill="#E6D0E6"/>
  <text x="152.5" y="455" font-family="Arial" font-size="24" fill="white" text-anchor="middle" font-weight="bold">5</text>
  
  <rect x="205" y="410" width="85" height="70" rx="10" fill="#E6D0E6"/>
  <text x="247.5" y="455" font-family="Arial" font-size="24" fill="white" text-anchor="middle" font-weight="bold">6</text>
  
  <rect x="300" y="410" width="85" height="70" rx="10" fill="#F4A6D7"/>
  <text x="342.5" y="455" font-family="Arial" font-size="24" fill="white" text-anchor="middle" font-weight="bold">-</text>
  
  <!-- Fila 4 -->
  <rect x="15" y="490" width="85" height="70" rx="10" fill="#E6D0E6"/>
  <text x="57.5" y="535" font-family="Arial" font-size="24" fill="white" text-anchor="middle" font-weight="bold">1</text>
  
  <rect x="110" y="490" width="85" height="70" rx="10" fill="#E6D0E6"/>
  <text x="152.5" y="535" font-family="Arial" font-size="24" fill="white" text-anchor="middle" font-weight="bold">2</text>
  
  <rect x="205" y="490" width="85" height="70" rx="10" fill="#E6D0E6"/>
  <text x="247.5" y="535" font-family="Arial" font-size="24" fill="white" text-anchor="middle" font-weight="bold">3</text>
  
  <rect x="300" y="490" width="85" height="70" rx="10" fill="#F4A6D7"/>
  <text x="342.5" y="535" font-family="Arial" font-size="24" fill="white" text-anchor="middle" font-weight="bold">+</text>
</svg>
